<?xml version="1.0" standalone="no"?><!DOCTYPE svg PUBLIC "-//W3C//DTD SVG 1.1//EN" "http://www.w3.org/Graphics/SVG/1.1/DTD/svg11.dtd"><svg t="1499411830115" class="icon" style="" viewBox="0 0 1024 1024" version="1.1" xmlns="http://www.w3.org/2000/svg" p-id="5274" xmlns:xlink="http://www.w3.org/1999/xlink" width="200" height="200"><defs><style type="text/css"></style></defs><path d="M773.808286 379.983267l-26.28669 0 0-78.861092c0-130.432655-106.171088-236.582253-236.579183-236.582253-130.460284 0-236.582253 106.149599-236.582253 236.582253l0 78.861092-26.28669 0c-43.48642 0-78.862115 35.373649-78.862115 78.861092l0 420.593174c0 43.485397 35.375695 78.861092 78.862115 78.861092l525.736862 0c43.48642 0 78.861092-35.375695 78.861092-78.861092L852.671425 458.84436C852.669378 415.356916 817.294706 379.983267 773.808286 379.983267zM326.931492 301.122175c0-101.477182 82.505086-184.008874 184.008874-184.008874 101.450577 0 184.007851 82.531692 184.007851 184.008874l0 78.861092L326.931492 379.983267 326.931492 301.122175zM800.095999 879.43651c0 14.475689-11.806907 26.28669-26.287713 26.28669L248.071424 905.7232c-14.529925 0-26.28669-11.809977-26.28669-26.28669L221.784734 458.84436c0-14.503319 11.756765-26.287713 26.28669-26.287713l525.736862 0c14.480806 0 26.287713 11.784394 26.287713 26.287713L800.095999 879.43651z" p-id="5275" fill="#29A1F7"></path><path d="M510.936273 836.224336 510.936273 836.224336c-18.524912 0-33.515325-17.46886-33.515325-38.891775l0-77.780481c0-21.418822 14.990413-38.885636 33.515325-38.885636l0 0c18.529005 0 33.520441 17.466814 33.520441 38.885636l0 77.780481C544.456714 818.755476 529.465279 836.224336 510.936273 836.224336z" p-id="5276" fill="#29A1F7"></path></svg>