<?xml version="1.0" standalone="no"?><!DOCTYPE svg PUBLIC "-//W3C//DTD SVG 1.1//EN" "http://www.w3.org/Graphics/SVG/1.1/DTD/svg11.dtd"><svg t="1498324230493" class="icon" style="" viewBox="0 0 1024 1024" version="1.1" xmlns="http://www.w3.org/2000/svg" p-id="5362" xmlns:xlink="http://www.w3.org/1999/xlink" width="200" height="200"><defs><style type="text/css"></style></defs><path d="M426.068654 858.218791c-11.798076 0-23.839411-0.486519-35.637486-1.459556l-22.379855-1.824445v-79.30253C218.690106 717.493289 114.818387 563.023637 114.818387 398.458724V237.664331c0-39.164746 31.866968-71.031714 71.031714-71.031714h651.326761c39.408006 0 71.518233 31.866968 71.518232 71.031714v136.833353h0.486519v24.325929c0 126.616463-53.760304 244.353961-151.307281 331.440789-91.222235 81.370234-212.122105 127.954389-331.805678 127.954389z m-9.365483-48.773489c3.162371 0.12163 6.203112 0.12163 9.365483 0.12163 107.885497 0 216.987291-42.083858 299.452192-115.548165 82.221642-73.464307 129.535574-171.011284 134.644019-276.464188V237.664331c0-12.284594-10.21689-22.379855-22.866373-22.379855H185.850101c-12.284594 0-22.379855 9.973631-22.379855 22.379855v160.672764c0 146.320466 92.803421 283.275448 225.744625 333.265233l11.798076 4.500297 15.568595 5.959853v67.382824z" p-id="5363" fill="#888888"></path><path d="M512.668963 653.637724c-34.056301 0-57.895712-5.351704-60.328305-6.203112l-1.216296-0.364889c-109.588312-33.569783-162.618838-106.425941-187.796176-161.767431-22.988003-51.449341-27.001782-96.57394-27.731559-109.101793-0.12163-1.337926 0.12163-12.649483 3.162371-17.514669 4.743556-7.905927 13.014372-12.527854 22.136595-12.527854 9.608742 0 18.366077 5.108445 22.744744 13.500891 2.919112 5.594964 3.52726 11.798076 4.013779 17.879558l0.364889 3.284c1.702815 16.298373 6.93289 48.773489 23.352892 84.167716 30.042523 65.43675 82.100012 109.953201 154.469652 132.211427 12.771113 2.554223 46.949044 7.905927 87.330087 1.216296 55.463119-8.878964 99.614681-35.637487 131.360019-79.424159 0.973037-1.459556 2.310963-3.40563 3.648889-5.594964 4.257038-6.689631 9.608742-15.082076 15.446965-19.217484 7.419408-5.230075 16.784891-6.324742 24.690819-2.919112l0.243259-0.121629 2.189334 1.216296c0.12163 0.12163 0.364889 0.243259 0.486518 0.243259h0.12163c7.905927 4.500297 12.527854 11.068298 12.649483 17.879558 0.12163 12.892743-9.973631 28.218078-11.068298 29.920894-40.624302 60.571564-100.466089 98.398385-173.322247 109.466682-15.446965 2.554223-30.650671 3.770519-46.949044 3.770519z" p-id="5364" fill="#888888"></path><path d="M763.226036 340.684642c-22.136596 0-40.624302 18.487706-40.624302 40.624302s18.487706 40.624302 40.624302 40.624302c22.866374 0 40.624302-18.487706 40.624303-40.624302s-18.487706-40.624302-40.624303-40.624302z" p-id="5365" fill="#888888"></path></svg>