<?xml version="1.0" standalone="no"?><!DOCTYPE svg PUBLIC "-//W3C//DTD SVG 1.1//EN" "http://www.w3.org/Graphics/SVG/1.1/DTD/svg11.dtd"><svg t="1499410242054" class="icon" style="" viewBox="0 0 1024 1024" version="1.1" xmlns="http://www.w3.org/2000/svg" p-id="3476" xmlns:xlink="http://www.w3.org/1999/xlink" width="200" height="200"><defs><style type="text/css"></style></defs><path d="M650.091 579.983C739.32 531.12 800.93 435.52 800.93 325.046 800.93 165.71 671.336 33.992 512 33.992s-288.93 129.593-288.93 288.93c0 110.472 61.61 206.074 150.839 254.937-157.212 57.36-267.685 208.2-267.685 382.407 0 16.995 12.747 29.742 29.743 29.742s29.743-12.747 29.743-29.742c0-191.204 155.087-348.415 348.414-348.415S862.54 766.938 862.54 960.266c0 16.995 12.747 29.742 29.743 29.742s29.743-12.747 29.743-29.742c-4.25-174.208-116.847-325.046-271.934-380.283z m-369.66-257.062c0-127.469 104.1-231.568 231.569-231.568s231.568 104.1 231.568 231.568c0 127.469-104.1 231.569-231.568 231.569S280.432 452.515 280.432 322.92z" fill="#29A1F7" p-id="3477"></path></svg>