<?xml version="1.0" standalone="no"?><!DOCTYPE svg PUBLIC "-//W3C//DTD SVG 1.1//EN" "http://www.w3.org/Graphics/SVG/1.1/DTD/svg11.dtd"><svg t="1499411796162" class="icon" style="" viewBox="0 0 1025 1024" version="1.1" xmlns="http://www.w3.org/2000/svg" p-id="4559" xmlns:xlink="http://www.w3.org/1999/xlink" width="200.1953125" height="200"><defs><style type="text/css"></style></defs><path d="M513.399854 0.008677a503.756161 503.756161 0 0 1 361.357003 153.117374 510.391247 510.391247 0 0 1 0 721.182831 510.391247 510.391247 0 0 1-722.203615 0A510.391247 510.391247 0 0 1 513.399854 0.008677z m320.015312 191.396717a451.185862 451.185862 0 1 0 0 639.009841 453.737818 453.737818 0 0 0 0-639.009841z" fill="#29A1F7" p-id="4560"></path><path d="M354.157785 217.945739c0 4.593521-135.764072 97.995119 16.33252 390.449304s275.100882 223.551366 275.100882 223.551366L570.563674 663.517297s-20.41565 16.33252-46.955995-18.884476a787.023303 787.023303 0 0 1-97.99512-199.052586c-10.207825-43.893647-10.207825-58.694993 7.145478-58.694993-77.069078-163.325199-80.131426-172.00185-78.600252-168.939503z m236.821538 438.936472l-3.062347-5.614303a446.592341 446.592341 0 0 1 55.632646-20.41565 15.822129 15.822129 0 0 1 21.946823 8.676651L725.212221 765.595547a25.009171 25.009171 0 0 1-7.145477 35.216996l-48.487169 23.477997-79.110643-166.897937zM377.635782 210.800262L374.573435 204.165175s36.74817-13.780564 55.632646-19.905258 21.946824 8.676651 21.946823 8.676651l61.24695 127.597812c11.738999 25.009171-7.145477 33.685822-7.145478 33.685822l-48.487168 23.477997z" fill="#29A1F7" p-id="4561"></path></svg>