<?xml version="1.0" standalone="no"?><!DOCTYPE svg PUBLIC "-//W3C//DTD SVG 1.1//EN" "http://www.w3.org/Graphics/SVG/1.1/DTD/svg11.dtd"><svg t="1498324210115" class="icon" style="" viewBox="0 0 1024 1024" version="1.1" xmlns="http://www.w3.org/2000/svg" p-id="5212" xmlns:xlink="http://www.w3.org/1999/xlink" width="200" height="200"><defs><style type="text/css"></style></defs><path d="M787.008 422.016a46.528 46.528 0 1 1 0-93.056 46.528 46.528 0 0 1 0 93.056m-15.04 130.752a314.56 314.56 0 0 1-260.416 137.856 315.072 315.072 0 0 1-314.688-314.688 39.232 39.232 0 1 1 78.464 0 236.48 236.48 0 0 0 236.224 236.224 236.032 236.032 0 0 0 195.52-103.552 39.296 39.296 0 0 1 64.896 44.16M888.128 128H135.808C96.128 128 64 160.192 64 199.808v187.52c0 196.288 124.16 362.752 288.64 428.672 3.008 1.216 5.376 3.264 6.784 5.12 3.008 4.48 2.56 8.576 2.56 8.576v47.616s-0.192 10.24 8.64 19.2a26.688 26.688 0 0 0 17.28 8.128 523.072 523.072 0 0 0 392.64-126.848A522.048 522.048 0 0 0 960 385.216V199.808C960 160.128 927.808 128 888.128 128" fill="#29A1F7" p-id="5213"></path></svg>